<svg viewBox="0 0 32 32" fill="currentColor" xmlns="http://www.w3.org/2000/svg">
  <path d="M18.0645 1.77752V2.85229C18.0645 3.54933 18.5343 4.15287 19.2056 4.34042C24.2067 5.73739 27.871 10.3234 27.871 15.7739C27.871 22.3345 22.5616 27.6449 16 27.6449C9.43944 27.6449 4.12906 22.3355 4.12906 15.7739C4.12906 10.3242 7.79267 5.73752 12.7943 4.34042C13.4658 4.15287 13.9355 3.5492 13.9355 2.8521V1.77804C13.9355 0.764554 12.9785 0.0262324 11.9971 0.279071C5.07119 2.06307 -0.0390652 8.36784 0.000225037 15.8598C0.0466766 24.7019 7.19228 31.7925 16.0345 31.7738C24.8552 31.7552 32 24.5989 32 15.7739C32 8.31371 26.8942 2.04623 19.9864 0.274813C19.0115 0.024813 18.0645 0.77107 18.0645 1.77752Z" />
</svg>
