<svg viewBox="0 0 32 26" fill="currentColor" xmlns="http://www.w3.org/2000/svg">
  <path d="M31.2 10.6H28V7.39995C28 6.95995 27.64 6.59995 27.2 6.59995H25.6C25.16 6.59995 24.8 6.95995 24.8 7.39995V10.6H21.6C21.16 10.6 20.8 10.96 20.8 11.4V13C20.8 13.44 21.16 13.8 21.6 13.8H24.8V17C24.8 17.44 25.16 17.8 25.6 17.8H27.2C27.64 17.8 28 17.44 28 17V13.8H31.2C31.64 13.8 32 13.44 32 13V11.4C32 10.96 31.64 10.6 31.2 10.6ZM11.2 13C14.735 13 17.6 10.135 17.6 6.59995C17.6 3.06495 14.735 0.199951 11.2 0.199951C7.665 0.199951 4.8 3.06495 4.8 6.59995C4.8 10.135 7.665 13 11.2 13ZM15.68 14.6H14.845C13.735 15.11 12.5 15.4 11.2 15.4C9.9 15.4 8.67 15.11 7.555 14.6H6.72C3.01 14.6 0 17.61 0 21.32V23.4C0 24.725 1.075 25.8 2.4 25.8H20C21.325 25.8 22.4 24.725 22.4 23.4V21.32C22.4 17.61 19.39 14.6 15.68 14.6Z" />
</svg>
