<svg viewBox="0 0 32 20" fill="currentColor" xmlns="http://www.w3.org/2000/svg">
  <path d="M31.2707 1.7842C31.4905 1.04164 31.2707 0.495117 30.2133 0.495117H26.7143C25.8233 0.495117 25.4134 0.964415 25.1936 1.48718C25.1936 1.48718 23.4114 5.82967 20.8927 8.64546C20.0788 9.4593 19.7046 9.72069 19.259 9.72069C19.0392 9.72069 18.7006 9.4593 18.7006 8.71674V1.7842C18.7006 0.893129 18.4511 0.495117 17.7145 0.495117H12.2136C11.6552 0.495117 11.3226 0.910951 11.3226 1.29708C11.3226 2.14063 12.5819 2.33667 12.7126 4.71286V9.8692C12.7126 10.9979 12.5107 11.2058 12.0651 11.2058C10.877 11.2058 7.98995 6.84549 6.27909 1.85549C5.93454 0.887189 5.59593 0.495117 4.69892 0.495117H1.19998C0.201976 0.495117 2.26611e-08 0.964415 2.26611e-08 1.48718C2.26611e-08 2.41389 1.1881 7.01777 5.53059 13.1008C8.4236 17.2532 12.4988 19.5047 16.2056 19.5047C18.4333 19.5047 18.7066 19.0057 18.7066 18.1443C18.7066 14.176 18.5046 13.8018 19.6214 13.8018C20.1382 13.8018 21.0293 14.0632 23.1085 16.0651C25.4847 18.4413 25.8767 19.5047 27.2074 19.5047H30.7064C31.7044 19.5047 32.2093 19.0057 31.9182 18.0195C31.2529 15.9463 26.7559 11.681 26.554 11.3959C26.0371 10.7306 26.1856 10.4335 26.554 9.8395C26.5599 9.83356 30.8311 3.82179 31.2707 1.7842Z" />
</svg>
