<svg viewBox="0 0 32 30" fill="currentColor" xmlns="http://www.w3.org/2000/svg">
  <path d="M31.6398 25.223C32.6653 27.0004 31.3781 29.2223 29.33 29.2223H2.66968C0.617627 29.2223 -0.663595 26.997 0.359849 25.223L13.6902 2.11033C14.7161 0.332055 17.2857 0.335277 18.3098 2.11033L31.6398 25.223ZM16 20.4445C14.5886 20.4445 13.4445 21.5887 13.4445 23C13.4445 24.4114 14.5886 25.5556 16 25.5556C17.4114 25.5556 18.5556 24.4114 18.5556 23C18.5556 21.5887 17.4114 20.4445 16 20.4445ZM13.5737 11.2586L13.9858 18.8142C14.0051 19.1677 14.2975 19.4445 14.6515 19.4445H17.3485C17.7026 19.4445 17.9949 19.1677 18.0142 18.8142L18.4263 11.2586C18.4471 10.8767 18.1431 10.5556 17.7606 10.5556H14.2393C13.8569 10.5556 13.5529 10.8767 13.5737 11.2586Z" />
</svg>
