<svg viewBox="0 0 32 28" fill="currentColor" xmlns="http://www.w3.org/2000/svg">
  <path d="M1.14286 5.14286H30.8571C31.4884 5.14286 32 4.63121 32 4V1.14286C32 0.511643 31.4884 0 30.8571 0H1.14286C0.511643 0 0 0.511643 0 1.14286V4C0 4.63121 0.511643 5.14286 1.14286 5.14286ZM1.14286 16.5714H30.8571C31.4884 16.5714 32 16.0598 32 15.4286V12.5714C32 11.9402 31.4884 11.4286 30.8571 11.4286H1.14286C0.511643 11.4286 0 11.9402 0 12.5714V15.4286C0 16.0598 0.511643 16.5714 1.14286 16.5714ZM1.14286 28H30.8571C31.4884 28 32 27.4884 32 26.8571V24C32 23.3688 31.4884 22.8571 30.8571 22.8571H1.14286C0.511643 22.8571 0 23.3688 0 24V26.8571C0 27.4884 0.511643 28 1.14286 28Z" />
</svg>
