<svg viewBox="0 0 32 30" fill="currentColor" xmlns="http://www.w3.org/2000/svg">
  <path d="M29.3333 0.777832H2.66667C1.19444 0.777832 0 1.97228 0 3.4445V21.2223C0 22.6945 1.19444 23.8889 2.66667 23.8889H13.3333L12.4444 26.5556H8.44444C7.70556 26.5556 7.11111 27.1501 7.11111 27.8889C7.11111 28.6278 7.70556 29.2223 8.44444 29.2223H23.5556C24.2944 29.2223 24.8889 28.6278 24.8889 27.8889C24.8889 27.1501 24.2944 26.5556 23.5556 26.5556H19.5556L18.6667 23.8889H29.3333C30.8056 23.8889 32 22.6945 32 21.2223V3.4445C32 1.97228 30.8056 0.777832 29.3333 0.777832ZM28.4444 20.3334H3.55556V4.33339H28.4444V20.3334Z" />
</svg>
