<svg viewBox="0 0 32 26" fill="currentColor" xmlns="http://www.w3.org/2000/svg">
  <path d="M27.1106 16.1406V24.1025C27.1106 24.8415 26.5161 25.436 25.7771 25.436H19.332C18.9653 25.436 18.6653 25.1359 18.6653 24.7692V18.5464C18.6653 18.1797 18.3653 17.8796 17.9986 17.8796H13.9981C13.6314 17.8796 13.3314 18.1797 13.3314 18.5464V24.7692C13.3314 25.1359 13.0314 25.436 12.6647 25.436H6.21957C5.4806 25.436 4.8861 24.8415 4.8861 24.1025V16.1406C4.8861 15.9405 4.97499 15.7516 5.13057 15.6238L15.5761 7.02296C15.8205 6.82294 16.1761 6.82294 16.4262 7.02296L26.8717 15.6238C27.0217 15.7516 27.1106 15.9405 27.1106 16.1406ZM31.7555 12.7569L27.1106 8.92871V1.23348C27.1106 0.866774 26.8106 0.566743 26.4439 0.566743H23.3324C22.9657 0.566743 22.6657 0.866774 22.6657 1.23348V5.26722L17.693 1.17236C16.7095 0.361166 15.2872 0.361166 14.3037 1.17236L0.241175 12.7569C-0.0421871 12.9902 -0.08108 13.4125 0.152277 13.6959L1.56909 15.4183C1.80245 15.7016 2.22471 15.7405 2.50807 15.5072L15.5761 4.74495C15.8205 4.54493 16.1761 4.54493 16.4262 4.74495L29.4942 15.5072C29.7775 15.7405 30.1998 15.7016 30.4332 15.4183L31.85 13.6959C32.0833 13.4069 32.0389 12.9902 31.7555 12.7569Z" />
</svg>
