<svg viewBox="0 0 32 26" fill="currentColor" xmlns="http://www.w3.org/2000/svg">
  <path d="M31.5571 14.0787L20.8899 24.7459C19.9375 25.6984 18.2866 25.0317 18.2866 23.6665V17.571H9.65127C8.80679 17.571 8.12739 16.8916 8.12739 16.0471V9.95155C8.12739 9.10706 8.80679 8.42766 9.65127 8.42766H18.2866V2.33212C18.2866 0.973323 19.9311 0.300274 20.8899 1.2527L31.5571 11.9199C32.1476 12.5168 32.1476 13.4819 31.5571 14.0787ZM12.1911 24.4285V21.8886C12.1911 21.4696 11.8482 21.1267 11.4291 21.1267H6.09554C4.97167 21.1267 4.06369 20.2187 4.06369 19.0949V6.90378C4.06369 5.77991 4.97167 4.87193 6.09554 4.87193H11.4291C11.8482 4.87193 12.1911 4.52905 12.1911 4.10999V1.57018C12.1911 1.15111 11.8482 0.808235 11.4291 0.808235H6.09554C2.73029 0.808235 0 3.53853 0 6.90378V19.0949C0 22.4601 2.73029 25.1904 6.09554 25.1904H11.4291C11.8482 25.1904 12.1911 24.8475 12.1911 24.4285Z" />
</svg>
