<svg viewBox="0 0 32 26" fill="currentColor" xmlns="http://www.w3.org/2000/svg">
  <path d="M26 24.7485H20.75C20.3375 24.7485 20 24.411 20 23.9985V21.4985C20 21.086 20.3375 20.7485 20.75 20.7485H26C27.1063 20.7485 28 19.8548 28 18.7485V6.74854C28 5.64229 27.1063 4.74854 26 4.74854H20.75C20.3375 4.74854 20 4.41104 20 3.99854V1.49854C20 1.08604 20.3375 0.748535 20.75 0.748535H26C29.3125 0.748535 32 3.43604 32 6.74854V18.7485C32 22.061 29.3125 24.7485 26 24.7485ZM23.0625 12.186L12.5625 1.68604C11.625 0.748535 10 1.40479 10 2.74854V8.74854H1.5C0.66875 8.74854 0 9.41728 0 10.2485V16.2485C0 17.0798 0.66875 17.7485 1.5 17.7485H10V23.7485C10 25.0923 11.625 25.7485 12.5625 24.811L23.0625 14.311C23.6437 13.7235 23.6437 12.7735 23.0625 12.186Z" />
</svg>
