<svg viewBox="0 0 32 26" fill="currentColor" xmlns="http://www.w3.org/2000/svg">
  <path d="M24.8 11.4C20.82 11.4 17.6 14.62 17.6 18.6C17.6 22.58 20.82 25.8 24.8 25.8C28.78 25.8 32 22.58 32 18.6C32 14.62 28.78 11.4 24.8 11.4ZM28 18.915C28 19.18 27.78 19.4 27.515 19.4H24.485C24.22 19.4 24 19.18 24 18.915V15.085C24 14.82 24.22 14.6 24.485 14.6H25.115C25.38 14.6 25.6 14.82 25.6 15.085V17.8H27.515C27.78 17.8 28 18.02 28 18.285V18.915ZM16 18.6C16 17.21 16.335 15.895 16.91 14.725C16.51 14.65 16.1 14.6 15.68 14.6H14.845C13.735 15.11 12.5 15.4 11.2 15.4C9.9 15.4 8.67 15.11 7.555 14.6H6.72C3.01 14.6 0 17.61 0 21.32V23.4C0 24.725 1.075 25.8 2.4 25.8H19.755C17.49 24.205 16 21.575 16 18.6ZM11.2 13C14.735 13 17.6 10.135 17.6 6.59995C17.6 3.06495 14.735 0.199951 11.2 0.199951C7.665 0.199951 4.8 3.06495 4.8 6.59995C4.8 10.135 7.665 13 11.2 13Z" />
</svg>
